<svg width="180" height="180" viewBox="0 0 180 180" fill="none" xmlns="http://www.w3.org/2000/svg">
<rect width="180" height="180" rx="90" fill="black"/>
<path d="M66.6328 52.8125C61.4766 52.8125 57.4922 48.7695 57.4922 43.9062C57.4922 39.043 61.4766 35 66.6328 35C71.7891 35 75.7734 39.043 75.7734 43.9062C75.7734 48.7695 71.7891 52.8125 66.6328 52.8125ZM52.6875 144.395C51.1055 144.395 49.0547 144.336 48 144.219V131.328C48.6445 131.387 49.4062 131.445 50.168 131.445C55.8516 131.445 58.0781 129.629 58.0781 124.531V60.8984H75.1875V125C75.1875 137.773 67.3945 144.395 52.6875 144.395Z" fill="white"/>
<path d="M115.324 125C96.1641 125 84.3281 112.52 84.3281 92.2461V92.1875C84.3281 72.0898 96.3398 59.6094 115.148 59.6094C132.199 59.6094 143.039 70.0977 143.684 83.6914V84.1016H127.805L127.688 83.5742C126.633 77.5977 122.473 73.0273 115.383 73.0273C107.004 73.0273 101.73 80.2344 101.73 92.2461V92.3047C101.73 104.609 107.004 111.582 115.441 111.582C122.297 111.582 126.574 107.363 127.746 101.035L127.805 100.508H143.742V100.859C142.922 114.57 132.082 125 115.324 125Z" fill="#6CA3F5"/>
</svg>
